PathFileType	4	(X/Y/Z)	C:/Users/opensim2020/Desktop/walking_exp_matlab/subject02_walking09_straight_04.trc																																																																																																																												
DataRate	CameraRate	NumFrames	NumMarkers	Units	OrigDataRate	OrigDataStartFrame	OrigNumFrames																																																																																																																								
100	100	6	42	mm	100	3220	285																																																																																																																								
Frame#	Time	LFHD			RFHD			LBHD			RBHD			C7			T10			CLAV			STRN			RBAK			LSHO			LUPA			LELB			LFRM			LWRA			LWRB			LFIN			RSHO			RUPA			RELB			RFRM			RWRA			RWRB			RFIN			LASI			RASI			LPSI			RPSI			LTHI			LKNE			LTIB			LANK			LHEE			LTOE			RTHI			RKNE			RTIB			RANK			RHEE			RTOE			*39			*40			*41		
		X1	Y1	Z1	X2	Y2	Z2	X3	Y3	Z3	X4	Y4	Z4	X5	Y5	Z5	X6	Y6	Z6	X7	Y7	Z7	X8	Y8	Z8	X9	Y9	Z9	X10	Y10	Z10	X11	Y11	Z11	X12	Y12	Z12	X13	Y13	Z13	X14	Y14	Z14	X15	Y15	Z15	X16	Y16	Z16	X17	Y17	Z17	X18	Y18	Z18	X19	Y19	Z19	X20	Y20	Z20	X21	Y21	Z21	X22	Y22	Z22	X23	Y23	Z23	X24	Y24	Z24	X25	Y25	Z25	X26	Y26	Z26	X27	Y27	Z27	X28	Y28	Z28	X29	Y29	Z29	X30	Y30	Z30	X31	Y31	Z31	X32	Y32	Z32	X33	Y33	Z33	X34	Y34	Z34	X35	Y35	Z35	X36	Y36	Z36	X37	Y37	Z37	X38	Y38	Z38	X39	Y39	Z39	X40	Y40	Z40	X41	Y41	Z41	X42	Y42	Z42
																																																																																																																															
214	2.13	778.97748	1710.2616	-1513.26526	768.79999	1692.91943	-1369.95227	638.28143	1657.95715	-1528.66528	616.39435	1641.71716	-1386.48816	567.01794	1510.26062	-1446.34229	521.91412	1229.92554	-1439.04822	704.36993	1441.95178	-1466.86621	762.97345	1274.03406	-1454.64404	517.57483	1333.19604	-1374.77759	622.70679	1477.96765	-1631.9386	592.86774	1276.44556	-1710.6394	575.95276	1138.38977	-1718.85767	567.13025	1008.64313	-1736.63257	606.66217	874.09857	-1713.65479	559.89465	885.71692	-1744.57861	566.71832	818.44965	-1748.73486	659.30304	1481.21216	-1266.12207	659.69592	1286.01514	-1182.58569	700.42792	1143.8418	-1166.37842	756.92542	1036.6261	-1155.28345	833.26355	927.62445	-1182.74438	792.01459	911.38458	-1147.15857	845.49359	862.44836	-1148.68567	776.94324	992.4881	-1578.26978	764.0686	956.46765	-1325.48108	559.82935	1016.93378	-1506.47937	551.32458	1010.27173	-1390.62109	771.58966	681.41425	-1638.42883	771.48883	476.70374	-1605.4707	735.81122	283.63425	-1604.66663	762.0564	64.64785	-1567.0907	725.61957	37.49826	-1516.9364	919.67023	29.54187	-1570.22192	631.10742	659.4353	-1248.91895	600.09503	458.38693	-1253.98315	456.72366	337.4913	-1256.92102	330.21732	193.94577	-1294.34766	283.55643	174.18829	-1359.86951	388.80399	40.28561	-1275.9751	684.56207	1792.62109	-1428.71191	NaN	NaN	NaN	NaN	NaN	NaN
215	2.14	786.97955	1710.76831	-1515.18408	776.86774	1693.84912	-1372	646.29504	1659.00464	-1530.83118	624.18909	1643.00012	-1388.62488	574.97577	1511.09082	-1448.63135	530.23206	1230.71265	-1441.47412	712.58734	1443.1676	-1468.68665	771.55029	1275.4093	-1456.48157	525.50732	1334.09216	-1376.98047	630.99951	1479.15796	-1633.82715	604.62201	1277.203	-1713.30823	590.00824	1139.18359	-1722.55981	583.70135	1009.34149	-1740.77551	625.17029	875.42883	-1717.55237	578.7312	886.29126	-1749.36804	586.69257	819.21942	-1753.47742	666.72314	1482.41309	-1268.16016	665.9071	1287.0957	-1184.91821	704.67871	1144.47046	-1169.42053	759.55121	1036.25964	-1157.53516	834.4231	925.98425	-1184.80017	792.81085	910.66766	-1149.23999	845.36981	860.4408	-1150.76245	785.35059	993.62134	-1580.93384	772.34692	957.35571	-1328.78162	568.43011	1017.58374	-1509.04419	559.69196	1011.14294	-1393.18066	777.92957	681.57129	-1640.00537	774.57758	476.73511	-1607.08069	737.28821	284.07385	-1605.90771	762.07373	64.65329	-1567.20679	725.93713	36.89876	-1516.9928	919.74091	29.43938	-1570.19324	644.5108	658.03693	-1250.08716	617.26239	457.35867	-1253.85425	473.26117	339.3414	-1256.13477	343.44589	199.53531	-1294.1803	296.14359	181.83585	-1359.41272	397.04736	44.69225	-1275.49634	692.87	1793.70068	-1431.01794	NaN	NaN	NaN	NaN	NaN	NaN
216	2.15	795.15759	1711.52905	-1517.07373	784.76459	1694.78442	-1373.83704	654.30695	1660.07361	-1532.85352	631.81775	1644.28149	-1390.84998	583.24713	1512.08118	-1450.98279	538.45947	1231.57776	-1443.8512	720.74835	1444.37354	-1470.36792	779.92145	1276.71082	-1458.14551	532.91516	1335.15833	-1379.79712	639.46326	1480.24707	-1635.71594	616.0224	1278.21289	-1716.4624	604.09052	1139.87219	-1726.29395	600.32593	1010.11755	-1745.12524	643.9162	876.74951	-1721.24329	597.8877	887.02863	-1753.79272	607.1734	820.03931	-1758.05383	673.87354	1483.49658	-1270.10205	671.96136	1287.98364	-1187.06702	709.00604	1144.9032	-1172.26917	761.77771	1035.98169	-1160.11475	835.61682	924.37183	-1186.67468	793.50031	909.88373	-1151.16772	844.93732	858.42853	-1152.82129	794.22394	994.4776	-1583.66736	779.04462	957.92108	-1331.82739	576.78583	1018.47766	-1511.77881	567.6615	1012.12415	-1395.96448	783.44708	681.5752	-1641.52246	777.61072	476.85037	-1608.51477	739.6012	284.40118	-1607.13538	762.20953	64.57526	-1567.28259	725.84863	37.08683	-1517.14209	919.76984	29.37261	-1570.18176	657.53571	657.513	-1251.23523	634.99951	457.07428	-1253.76428	489.93054	341.38239	-1255.72314	357.52127	204.64777	-1294.57764	309.7663	187.96902	-1360.3595	408.05167	49.38162	-1273.33252	701.0437	1794.73523	-1433.10352	NaN	NaN	NaN	NaN	NaN	NaN
217	2.16	803.22162	1712.42859	-1518.85828	792.5658	1695.77222	-1375.60681	662.36627	1661.1665	-1534.84119	639.83319	1645.45313	-1392.62512	591.0271	1512.91858	-1453.18762	546.56165	1232.52795	-1446.30627	728.87903	1445.55652	-1472.00525	788.16309	1277.90405	-1459.66846	541.22284	1335.9989	-1381.91931	647.96417	1481.28857	-1637.64697	627.5257	1279.01233	-1719.27612	618.18433	1140.57556	-1729.99036	617.27643	1010.62793	-1748.8999	662.48401	878.09351	-1724.55139	617.19702	887.72754	-1758.00439	628.02789	821.21484	-1762.75525	681.04742	1484.44714	-1271.81726	678.07184	1288.84607	-1188.9585	713.39514	1145.32166	-1175.04065	764.55096	1035.54736	-1162.08362	836.87274	922.82898	-1188.35425	794.18457	909.15222	-1153.02771	844.49524	856.27405	-1154.71777	801.2829	994.05719	-1585.21301	786.69751	958.78497	-1333.78589	584.96814	1019.58887	-1514.65491	575.26849	1013.18597	-1398.95874	788.22668	681.38312	-1642.86267	780.70825	476.83075	-1609.75806	741.86182	284.55188	-1608.41357	762.29425	64.56265	-1567.35767	725.82867	37.10519	-1517.31165	919.84796	29.27132	-1570.15625	670.54688	657.38428	-1252.3999	652.6535	457.22464	-1254.01306	506.60001	343.67899	-1256.08582	371.9303	209.2988	-1295.89124	324.5022	192.13731	-1362.22717	421.32773	54.66282	-1271.35632	709.16675	1795.79749	-1435.09326	NaN	NaN	NaN	NaN	NaN	NaN
218	2.17	811.30823	1713.37427	-1520.46863	800.3811	1696.79077	-1377.20984	670.43353	1662.23975	-1536.70923	647.52301	1646.63428	-1394.57581	599.1806	1513.98694	-1455.36609	554.55377	1233.55334	-1448.93958	736.86084	1446.68286	-1473.47449	796.28333	1279.07556	-1461.06421	548.74115	1336.78674	-1384.56458	656.67719	1482.22424	-1639.573	639.08081	1279.85156	-1722.08362	632.27844	1141.32007	-1733.71802	634.07489	1011.47345	-1752.92712	682.05475	879.84064	-1728.21143	636.73993	888.55151	-1762.0481	649.0152	822.24414	-1766.88367	687.91998	1485.30481	-1273.53638	684.06073	1289.54846	-1190.70032	717.7403	1145.64246	-1177.67151	767.17291	1035.23682	-1164.23364	837.82129	921.13904	-1189.94116	794.79102	908.32648	-1154.7677	844.09735	854.34131	-1156.45508	809.56989	993.96539	-1586.97693	794.02264	959.7182	-1335.09497	592.9989	1020.74951	-1517.60754	582.76453	1014.26538	-1402.0614	792.55145	681.14685	-1644.13831	783.96002	476.64047	-1610.82385	744.15137	284.46082	-1609.4126	762.49213	64.555	-1567.44336	725.56732	37.30173	-1517.3468	920.01862	29.31477	-1570.07861	683.58649	657.87177	-1253.54211	670.17896	457.76904	-1254.25085	523.46643	346.01849	-1257.03943	387.43063	213.15424	-1297.48083	340.29709	194.54692	-1364.28564	436.51208	59.58813	-1268.91467	717.15515	1796.92737	-1436.94043	-2845.94946	1034.10864	3356.81348	NaN	NaN	NaN
219	2.18	819.37567	1714.39563	-1521.95032	808.12006	1697.84216	-1378.68127	678.63867	1663.2605	-1538.21667	655.28796	1647.71106	-1396.38586	606.98608	1514.99658	-1457.42224	562.52246	1234.57349	-1451.57275	744.89557	1447.73938	-1474.90356	804.20221	1280.07019	-1462.31641	556.23163	1337.73755	-1387.48145	665.6347	1483.18518	-1641.45361	650.65424	1280.71741	-1724.91162	646.36316	1142.06787	-1737.34595	651.18591	1012.11151	-1756.48279	701.21979	881.74841	-1731.42773	656.39716	889.5141	-1765.8252	670.46002	823.80975	-1771.12646	694.93585	1486.03931	-1275.02673	689.71198	1290.17212	-1192.26953	722.01923	1145.98608	-1180.28137	769.88147	1034.82227	-1166.08716	838.97504	919.67358	-1191.27124	795.5423	907.6084	-1156.43091	843.55194	852.2843	-1157.94299	817.65295	993.49133	-1588.3772	801.0719	960.72968	-1335.93774	600.94421	1021.94916	-1520.54492	589.85907	1015.31213	-1405.24292	796.59589	680.73035	-1645.25159	787.07599	476.39673	-1611.77625	746.33209	284.34656	-1610.33533	762.55249	64.58807	-1567.53491	725.69232	37.33883	-1517.22083	920.01093	29.12247	-1569.97253	696.50623	658.78339	-1254.54712	687.6637	459.13467	-1254.76672	540.46759	348.18768	-1258.2926	403.80902	216.1293	-1299.26001	356.82291	195.95586	-1366.23376	452.95447	63.74564	-1266.21191	724.98486	1797.98059	-1438.68689	NaN	NaN	NaN	NaN	NaN	NaN
